<svg xmlns="http://www.w3.org/2000/svg" viewBox="0 0 256 256" fill="none" shape-rendering="auto" aria-hidden="true" width="128" height="128"><!-- Generated by DiceBear (https://www.dicebear.com) --><metadata xmlns:rdf="http://www.w3.org/1999/02/22-rdf-syntax-ns#" xmlns:xsi="http://www.w3.org/2001/XMLSchema-instance" xmlns:dc="http://purl.org/dc/elements/1.1/" xmlns:dcterms="http://purl.org/dc/terms/"><rdf:RDF><rdf:Description><dc:title>Croodles - Doodle your face</dc:title><dc:creator>vijay verma</dc:creator><dc:source xsi:type="dcterms:URI">https://www.figma.com/community/file/966199982810283152</dc:source><dcterms:license xsi:type="dcterms:URI">https://creativecommons.org/licenses/by/4.0/</dcterms:license><dc:rights>Remix of “Croodles - Doodle your face” (https://www.figma.com/community/file/966199982810283152) by “vijay verma”, licensed under “CC BY 4.0” (https://creativecommons.org/licenses/by/4.0/)</dc:rights></rdf:Description></rdf:RDF></metadata><defs><g id="nose-variant06-c2c77444"><path d="M23.8 4.5c-.8 5.3-1.2 16.3.3 22.3C27.7 41 22.6 44.3 21 44.3c-5.3 0-6.5-4.7-7.7-18-1.5-16.5-1.6-16.3-3.7-21" stroke="#000000" stroke-width="3" stroke-linecap="round" stroke-linejoin="round"/></g><g id="mouth-variant06-c2c77444"><path d="M41.3 10c-8 1.4-20.5.8-22.4 2.3-3.4 3.7 16.2 1.3 20.5.8 8.8-1 11.7-4.9 2-3.2" stroke="#000000" stroke-width="3" stroke-linecap="round" stroke-linejoin="round"/></g><g id="top-variant09-c2c77444"><path d="M92.9 103.6c5-3.3 18.6-14.8 21.9-17M71.7 111c4-4.4 14.6-18.8 17.3-21.7m-9.3 18.1a242 242 0 0 1 17-18M88 103a120 120 0 0 0 12-11m3.8-8.2c5-.5 9.4-6 11.5-8.7m57.6 29.1c7-.6 16.2-6.3 19-7.1M65.5 108.7c2.7-3.3 9.3-8.2 10.4-12m25.2 5.3c6.4-5.4 19.7-16.3 22-17.6m-13.8 15.9c4.8-3.5 15.5-11.4 20.3-15.4M115.9 101 135 85c2.2-1.6-9.9 11-13.2 14.9m6.2-.7c4.1-3.9 13-12 15.3-13.7M135.6 97c4.4-3.9 13.7-12 15.9-14.3m-8.8 13.2c3.7-3.5 11.8-11 14.8-13.2M147 97.2c2.8-2.3 10.8-8 20.4-12.5m-12.1 12.8c3.5-2.7 12-8.8 18.7-11.5m-11.5 11c1.4-1.5 6.2-5.3 13.6-8.8M69.3 97c3.9-2.2 6-4.4 7.2-16m15.3-3.7c-5.5 3.8-8.2 3.8-12 6m-.1 10.4A22 22 0 0 1 94 83.8m22.4-12.6c-2 .4-6.9 2.1-10.4 6m84.4 5.5a18 18 0 0 0-5.6 8m8.9.8a18 18 0 0 0-8.8 4.4M181 93c-1 .8-3.2 3.1-4.1 6M125 68.6c-1.6 1.1-5.6 4.8-2.4 12.4M134 70.7c-2 .4-7.2 2.2-7.2 10.4M141 81c4.8-2 14.9-7.7 17-12.5M136.7 81c4.4-4.3 10.4-7.6 15.9-12m-21.4 12.7c3.9-3.3 7.2-8.3 10.4-12.7m21.9 3.9-11.5 5m22-2.9c-.5 0-9.7 6.6-14.3 10m11.2-2.3c3.6-1.2 9.5-2.7 12.2-3.2m-13 17.5a89 89 0 0 0 11.5-11m-86-11c0-.8 1-2.7 5-2.7m68.6-1.1c.4.9-1.8 4.4-9 8.3m-59.1 8.7a70 70 0 0 0 15.9-6.6m-12-10.9a40 40 0 0 1-8.3 14.8" stroke="#9747ff" stroke-width="3" stroke-linecap="round" stroke-linejoin="round"/></g><g id="eyes-variant02-c2c77444"><path d="M31.4 26.2c7.1-2.6 13.3 5.2 13.3 10.9 0 6.8-5.3 12.5-10.3 12.5s-9.9-5.7-9.9-12.5c0-5.7 4-9.8 7.8-11.3M75 21.7c6.5-2.6 11 5.4 11 11 0 6.8-4 12.6-8.6 12.6s-9-4.7-9-12.2 3.6-10.2 7.1-11.6" stroke="#000000" stroke-width="3" stroke-linecap="round" stroke-linejoin="round"/><path d="M37.6 39q0 0 0 0m41.9-2.3q0 0 0 0" stroke="#000000" stroke-width="6" stroke-linecap="round" stroke-linejoin="round"/><path d="M25.7 17.8c2.8-3.2 10-7.9 17-1.6m21-2.6C68 9.4 78 3.2 83.7 11.8" stroke="#000000" stroke-width="3" stroke-linecap="round" stroke-linejoin="round"/></g><g id="head-variant05-c2c77444"><path d="M74.8 140q3.2-8.4 5.4-12.2-.1-.6.1-1.1c3-4.9 9-9.3 16.4-12.9a91 91 0 0 1 26.3-7.5c19.2-2.5 40.7.5 53.9 14.4q.3.4.4 1 1.5 1.7 3.6 6a109 109 0 0 1 4.4 10.2q2.2-.8 4.6-.5a7 7 0 0 1 5.4 3.3c2 3.5 2.9 10 1.6 15.8a7 7 0 0 1-2.6 4.2 6 6 0 0 1-2.3 1q.8 4.2 1.3 8.5c2.8 23.3-1.3 49.6-26 62.6-23.6 12.4-47 16-65.6 12.3C83 241.3 69 230 65 212.6c-3.2-13.5-1.3-31 2.2-46.7q-2.4-.5-3.9-3-2-3.2-1.7-9.2.8-9.4 4.8-12.8A7 7 0 0 1 71 139a9 9 0 0 1 3.8.9" fill="#ffffff"/><path d="M80.6 127.2c-6.1 10-22.3 57.6-15.6 86.4 8.1 34.4 54.6 44.9 102.1 19.7 48.7-25.8 16.6-104.3 9.7-111.8" stroke="#000000" stroke-width="3" stroke-linecap="round" stroke-linejoin="round"/><path d="M185.8 139c2.6-1.2 7.4-1.4 9.3 1.9 1.8 3.2 2.7 9.3 1.4 15.1-.7 3.3-3 4.3-5 4.3M74 141.3c-5.9-3.5-11.4-.2-12.4 12.2-.7 7.9 2.9 11.4 5.4 11" stroke="#000000" stroke-width="3" stroke-linecap="round" stroke-linejoin="round"/><use transform="translate(118 154)" href="#nose-variant06-c2c77444"/><use transform="translate(90 218)" href="#mouth-variant06-c2c77444"/><use transform="translate(1 17)" href="#top-variant09-c2c77444"/><use transform="translate(75 124)" href="#eyes-variant02-c2c77444"/></g><clipPath id="clip-c2c77444"><rect width="256" height="256" rx="0" ry="0"/></clipPath></defs><g clip-path="url(#clip-c2c77444)"><use transform="translate(-1.5 -33.5)" href="#head-variant05-c2c77444"/></g></svg>