<svg xmlns="http://www.w3.org/2000/svg" viewBox="0 0 360 360" fill="none" shape-rendering="auto" aria-hidden="true" width="128" height="128"><!-- Generated by DiceBear (https://www.dicebear.com) --><metadata xmlns:rdf="http://www.w3.org/1999/02/22-rdf-syntax-ns#" xmlns:xsi="http://www.w3.org/2001/XMLSchema-instance" xmlns:dc="http://purl.org/dc/elements/1.1/" xmlns:dcterms="http://purl.org/dc/terms/"><rdf:RDF><rdf:Description><dc:title>Avatar Illustration System</dc:title><dc:creator>Micah Lanier</dc:creator><dc:source xsi:type="dcterms:URI">https://www.figma.com/community/file/829741575478342595</dc:source><dcterms:license xsi:type="dcterms:URI">https://creativecommons.org/licenses/by/4.0/</dcterms:license><dc:rights>Remix of “Avatar Illustration System” (https://www.figma.com/community/file/829741575478342595) by “Micah Lanier”, licensed under “CC BY 4.0” (https://creativecommons.org/licenses/by/4.0/)</dc:rights></rdf:Description></rdf:RDF></metadata><defs><g id="head-standard-06a0a844"><path d="M140.05 297.55c-14.4-20-25.67-58.67-27-78l-68.5-29.5-28.5 107.5z" fill="#f9c9b6" stroke="black" stroke-width="4"/><path d="M116.42 241.74q-3.15.3-6.37.3c-30.78 0-56.05-21.56-58.76-49.09l61.76 26.6c.38 5.48 1.55 13.31 3.37 22.19" fill="black" style="mix-blend-mode:multiply"/><path d="M60.1 4.1a75.7 75.7 0 0 1 91.16 55.5l.05.23.02.06.05.2.05.2 16.4 68.42.08.34.08.34v.01l.1.4.14.64a75.72 75.72 0 0 1-147.25 35.28l-.2-.72L4.06 95.16 4 94.89A75.7 75.7 0 0 1 60.09 4.1Z" fill="#f9c9b6" stroke="black" stroke-width="4"/></g><g id="mouth-sad-06a0a844"><path d="M25.87 46.11c1.71-7.95 8.07-24.76 19.77-28.34 11.7-3.59 17.7 8.45 19.23 14.92" stroke="#000000" stroke-width="4"/></g><g id="eyebrows-eyelashesUp-06a0a844"><path d="M81.07 13.21c5.67-2.66 19-5.1 27 6.5M5.65 38.52c2.07-5.9 9.7-17.12 23.57-14.7M8.15 32.46 2 27.03m103.04-12.87 6.14-5.43M14.6 26.81l-4.05-7.13m87.04-9.17 4.04-7.13M22.67 23.2l-2.2-7.9m68.04-5.4 2.2-7.9" stroke="#000000" stroke-width="4" stroke-linecap="round"/></g><g id="hair-pixie-06a0a844"><path d="m130.84 100.82 1.88.3v.08l-.04.16-.12.52q-.17.68-.6 1.9a42 42 0 0 1-3.4 6.92c-3.17 5.32-8.7 12.66-18.32 21.59 29.98.75 55-8.9 72.83-19.03a156 156 0 0 0 21.71-14.87 119 119 0 0 0 7.15-6.35l.35-.35.1-.13.02-.03 2.28-2.37.92 3.16-1.83.54 1.84-.54.05.18.15.52.58 2a1971 1971 0 0 1 8.73 31.05c5.03 18.35 10.6 39.8 12.7 51.97 4.17 24.27-4.35 41.56-6.64 49.47l.21.16q.9.65 3.18 1.4c3.02.96 7.32 1.74 11.92 2.19s9.38.53 13.34.14q3-.3 5.08-.92a7 7 0 0 0 2.58-1.27q.04-.12-.02-.68-.14-1.16-.93-3.32c-1.07-2.88-2.81-6.64-4.8-11.18-3.94-8.94-8.66-20.56-9.7-32.4-1.17-13.37 1.54-24.78 3.9-35.02 2.39-10.34 4.38-19.32 2.34-28.42-3.1-13.8-7.32-25.3-13.8-33.57-6.42-8.17-15.13-13.27-27.5-14.21l-1.28-.1-.4-1.22c-5.7-17.57-13.38-29.05-23.18-36.17-9.8-7.11-21.96-10.05-36.94-10.05-27.7 0-57.5 10.52-79.88 28.72-22.35 18.18-37.14 43.9-35.2 74.33 2.13 33.6-.3 59.06-5.8 77.72-5 17-12.6 28.46-21.68 35.14q1.79.92 4.77 2.26c5.02 2.24 12.59 5.2 22.67 8.03 19.34 5.43 47.95 10.38 85.7 8.89-8.31-7.15-16.71-15.83-23.36-25-7.63-10.53-13.14-21.94-13.3-32.58-.2-12.62.67-45.67.93-52.5.62-15.9 10.82-28.15 20.54-36.3a97 97 0 0 1 19.4-12.52h.04l.01-.01zm0 0-.79-1.74 3.23-1.46-.56 3.5z" fill="#d2eff3" stroke="black" stroke-width="3.82"/><path d="M216 70c.5 4.5-.3 13.5-1.5 19.5" stroke="black" stroke-width="4"/></g><g id="eyes-smiling-06a0a844"><path d="M56.73 29.8c5.11-.6 9.81 2.45 11.48 7.1.26.73-.48 1.37-1.23 1.17a20 20 0 0 0-7.32-.48c-4.4.53-8.2 2.37-10.65 4.89-.58.6-1.6.4-1.72-.4l-.03-.24a10.83 10.83 0 0 1 9.47-12.04m64.02-9.86c5.05-.6 9.7 2.41 11.36 7 .26.74-.48 1.38-1.23 1.18-2.2-.58-4.67-.77-7.23-.47-4.35.52-8.1 2.35-10.54 4.83-.58.6-1.6.4-1.72-.4l-.03-.22a10.73 10.73 0 0 1 9.4-11.92" fill="#000000"/></g><g id="nose-pointed-06a0a844"><path d="M6.9 0c0 14 7 25 7 25s-3.5 6-13.5 4" stroke="black" stroke-width="4"/></g><g id="ears-detached-06a0a844"><path d="m36 41.54-.53.57c-3.67 3.94-8.47 6.9-13.95 6.9-3.31 0-6.43-.5-8.86-1.88a9 9 0 0 1-4.6-7.08 8 8 0 0 1 .25-3.2c-3.55-3.12-5.7-7.81-6.22-14.18-.57-6.54 1.5-11.8 5.3-15.38 3.76-3.56 9.04-5.3 14.68-5.3 4.7 0 9.23 1.25 12.97 3.54l.95.59z" stroke="black" stroke-width="4"/><path d="M22.08 4c10.5 0 20 6.78 20 17q0 1-.1 1.97C41.41 32.94 32.62 47 21.5 47c-6.32 0-10.83-1.9-11.46-7.18a5.7 5.7 0 0 1 .68-3.6c-3.7-2.65-6.1-7.04-6.65-13.72-1-12 7.5-18.5 18-18.5" fill="#f9c9b6"/><path d="M26.5 12.5c-4-1.83-12.8-2.8-16 8" stroke="black" stroke-width="4"/><path d="M16 13c2.17 1.83 6.3 7.5 5.5 15.5" stroke="black" stroke-width="4"/></g><g id="clothes-crew-06a0a844"><path d="M136.98 16.94a86 86 0 0 1 23.8 3.35c6.87 1.84 13.83 4.31 21.75 6.13l.15.03.14.01c46.12 3.8 73.78 24.3 93.86 52.5H3.36c16.3-29.34 39.48-48.02 77.07-56.59 16.01-3.64 34.66-5.46 56.55-5.46Z" fill="#77311d" stroke="black" stroke-width="4"/><path d="m68.91 24.58 9.16-19.6a1 1 0 0 1 1.25-.51c37.92 13.42 72.42 12.48 104.4 3.57a1 1 0 0 1 1.08.38l13.93 19.05a.98.98 0 0 1-.42 1.5c-33.6 13.2-96.66 10.95-128.9-3.07a1 1 0 0 1-.5-1.32Z" fill="#77311d" stroke="black" stroke-width="4"/><path opacity=".75" d="m68.91 24.58 9.16-19.6a1 1 0 0 1 1.25-.51c37.92 13.42 72.42 12.48 104.4 3.57a1 1 0 0 1 1.08.38l13.93 19.05a.98.98 0 0 1-.42 1.5c-33.6 13.2-96.66 10.95-128.9-3.07a1 1 0 0 1-.5-1.32Z" fill="white" stroke="black" stroke-width="4"/></g><clipPath id="clip-06a0a844"><rect width="360" height="360" rx="0" ry="0"/></clipPath></defs><g clip-path="url(#clip-06a0a844)"><use transform="translate(93.95 44.95)" href="#head-standard-06a0a844"/><use transform="translate(157.13 182.89)" href="#mouth-sad-06a0a844"/><use transform="translate(127.93 99)" href="#eyebrows-eyelashesUp-06a0a844"/><use transform="translate(24 -1)" href="#hair-pixie-06a0a844"/><use transform="translate(100 111)" href="#eyes-smiling-06a0a844"/><use transform="rotate(-8 1175.7 -1254.11)" href="#nose-pointed-06a0a844"/><use transform="translate(85 155)" href="#ears-detached-06a0a844"/><use transform="translate(37.02 284)" href="#clothes-crew-06a0a844"/></g></svg>