<svg xmlns="http://www.w3.org/2000/svg" viewBox="0 0 360 360" fill="none" shape-rendering="auto" aria-hidden="true" width="128" height="128"><!-- Generated by DiceBear (https://www.dicebear.com) --><metadata xmlns:rdf="http://www.w3.org/1999/02/22-rdf-syntax-ns#" xmlns:xsi="http://www.w3.org/2001/XMLSchema-instance" xmlns:dc="http://purl.org/dc/elements/1.1/" xmlns:dcterms="http://purl.org/dc/terms/"><rdf:RDF><rdf:Description><dc:title>Avatar Illustration System</dc:title><dc:creator>Micah Lanier</dc:creator><dc:source xsi:type="dcterms:URI">https://www.figma.com/community/file/829741575478342595</dc:source><dcterms:license xsi:type="dcterms:URI">https://creativecommons.org/licenses/by/4.0/</dcterms:license><dc:rights>Remix of “Avatar Illustration System” (https://www.figma.com/community/file/829741575478342595) by “Micah Lanier”, licensed under “CC BY 4.0” (https://creativecommons.org/licenses/by/4.0/)</dc:rights></rdf:Description></rdf:RDF></metadata><defs><g id="head-standard-029e6361"><path d="M140.05 297.55c-14.4-20-25.67-58.67-27-78l-68.5-29.5-28.5 107.5z" fill="#f9c9b6" stroke="black" stroke-width="4"/><path d="M116.42 241.74q-3.15.3-6.37.3c-30.78 0-56.05-21.56-58.76-49.09l61.76 26.6c.38 5.48 1.55 13.31 3.37 22.19" fill="black" style="mix-blend-mode:multiply"/><path d="M60.1 4.1a75.7 75.7 0 0 1 91.16 55.5l.05.23.02.06.05.2.05.2 16.4 68.42.08.34.08.34v.01l.1.4.14.64a75.72 75.72 0 0 1-147.25 35.28l-.2-.72L4.06 95.16 4 94.89A75.7 75.7 0 0 1 60.09 4.1Z" fill="#f9c9b6" stroke="black" stroke-width="4"/></g><g id="mouth-laughing-029e6361"><path d="M77.6 25.82a36 36 0 0 0 1.18-12.54 4.98 4.98 0 0 0-6.8-4.2c-4.26 1.67-18.03 6.87-27.62 8.2-10.53 1.44-26.66-.33-31.44-.92a4.98 4.98 0 0 0-5.54 5.74 36 36 0 0 0 70.22 3.72" fill="#000000"/><path d="M64.7 39.67a32 32 0 0 1-37.2 4.6 21.5 21.5 0 0 1 37.2-4.6" fill="#FC909F"/></g><g id="eyebrows-eyelashesDown-029e6361"><path d="M9.07 29.5c6.17 2.5 21.1 3 31.5-15M76.07 7c5.17 5.33 18.1 12.8 28.5 0M19.22 29.46l-6.15-5.43m85.23-11.6 1.78-7.99M27.67 25.81l-4.05-7.13m66.6-6.66.93-8.15M34.75 20.2l-2.2-7.9m49.52-1.27-.78-8.16" stroke="#000000" stroke-width="4" stroke-linecap="round"/></g><g id="hair-fonze-029e6361"><path d="M214.5 12.5c20.68 8.5 25.62 25.22 20.68 48.9-1.27 6.05-4.6 11.32-9.43 15.9 9.4 34.06 9.6 53.87 4.38 57.65l-14.8-50c-31.94 18.75-91.7 21.95-106.65 21.95q-2.32.26-4.44.67c-14.63 9-2.58 52.12 11.76 70.43l-11 2c-5.2-25.25-17.7-22.87-26.93-21.33 2.76 17.15 9.21 35.04 13.1 47.73-7.5 1-6.5 10-35.5-61.5-6.46-15.95-6.02-30.15-.96-42.61-4.78-4.8-14.37-7.15-19.71-7.8 10.44-6.13 20.58-4.88 25.54-3.1q.75-1.13 1.56-2.22c-.97-4.43-7.96-9.48-12.11-11.84 8.56-4.3 18.62-2.03 23-.2C92.6 59.12 122 47.04 146.98 40.98c48.82-11.83 67.5-28.5 67.5-28.5Z" fill="#ffedef" stroke="black" stroke-width="4"/></g><g id="eyes-smiling-029e6361"><path d="M56.73 29.8c5.11-.6 9.81 2.45 11.48 7.1.26.73-.48 1.37-1.23 1.17a20 20 0 0 0-7.32-.48c-4.4.53-8.2 2.37-10.65 4.89-.58.6-1.6.4-1.72-.4l-.03-.24a10.83 10.83 0 0 1 9.47-12.04m64.02-9.86c5.05-.6 9.7 2.41 11.36 7 .26.74-.48 1.38-1.23 1.18-2.2-.58-4.67-.77-7.23-.47-4.35.52-8.1 2.35-10.54 4.83-.58.6-1.6.4-1.72-.4l-.03-.22a10.73 10.73 0 0 1 9.4-11.92" fill="#000000"/></g><g id="nose-pointed-029e6361"><path d="M6.9 0c0 14 7 25 7 25s-3.5 6-13.5 4" stroke="black" stroke-width="4"/></g><g id="ears-attached-029e6361"><path d="M29.5 5.18A24 24 0 0 0 22.08 4c-10.5 0-19 6.5-18 18.5 1.04 12.5 8.5 17 19 17A20 20 0 0 0 30 38.23" stroke="black" stroke-width="8"/><path d="M30.5 38.04a19 19 0 0 1-7.42 1.46c-10.5 0-17.96-4.5-19-17-1-12 7.5-18.5 18-18.5 3.14 0 6.19.6 8.92 1.73z" fill="#f9c9b6"/><path d="M26.5 12.5c-4-1.83-12.8-2.8-16 8" stroke="black" stroke-width="4"/><path d="M16 13c2.17 1.83 6.3 7.5 5.5 15.5" stroke="black" stroke-width="4"/></g><g id="clothes-crew-029e6361"><path d="M136.98 16.94a86 86 0 0 1 23.8 3.35c6.87 1.84 13.83 4.31 21.75 6.13l.15.03.14.01c46.12 3.8 73.78 24.3 93.86 52.5H3.36c16.3-29.34 39.48-48.02 77.07-56.59 16.01-3.64 34.66-5.46 56.55-5.46Z" fill="#ac6651" stroke="black" stroke-width="4"/><path d="m68.91 24.58 9.16-19.6a1 1 0 0 1 1.25-.51c37.92 13.42 72.42 12.48 104.4 3.57a1 1 0 0 1 1.08.38l13.93 19.05a.98.98 0 0 1-.42 1.5c-33.6 13.2-96.66 10.95-128.9-3.07a1 1 0 0 1-.5-1.32Z" fill="#ac6651" stroke="black" stroke-width="4"/><path opacity=".75" d="m68.91 24.58 9.16-19.6a1 1 0 0 1 1.25-.51c37.92 13.42 72.42 12.48 104.4 3.57a1 1 0 0 1 1.08.38l13.93 19.05a.98.98 0 0 1-.42 1.5c-33.6 13.2-96.66 10.95-128.9-3.07a1 1 0 0 1-.5-1.32Z" fill="white" stroke="black" stroke-width="4"/></g><clipPath id="clip-029e6361"><rect width="360" height="360" rx="0" ry="0"/></clipPath></defs><g clip-path="url(#clip-029e6361)"><use transform="translate(93.95 44.95)" href="#head-standard-029e6361"/><use transform="translate(157.13 182.89)" href="#mouth-laughing-029e6361"/><use transform="translate(127.93 99)" href="#eyebrows-eyelashesDown-029e6361"/><use transform="translate(24 -1)" href="#hair-fonze-029e6361"/><use transform="translate(100 111)" href="#eyes-smiling-029e6361"/><use transform="rotate(-8 1175.7 -1254.11)" href="#nose-pointed-029e6361"/><use transform="translate(85 155)" href="#ears-attached-029e6361"/><use transform="translate(37.02 284)" href="#clothes-crew-029e6361"/></g></svg>