<svg xmlns="http://www.w3.org/2000/svg" viewBox="0 0 16 16" fill="none" shape-rendering="crispEdges" aria-hidden="true" width="128" height="128"><!-- Generated by DiceBear (https://www.dicebear.com) --><metadata xmlns:rdf="http://www.w3.org/1999/02/22-rdf-syntax-ns#" xmlns:xsi="http://www.w3.org/2001/XMLSchema-instance" xmlns:dc="http://purl.org/dc/elements/1.1/" xmlns:dcterms="http://purl.org/dc/terms/"><rdf:RDF><rdf:Description><dc:title>Pixel Art</dc:title><dc:creator>DiceBear</dc:creator><dc:source xsi:type="dcterms:URI">https://www.figma.com/community/file/1198754108850888330</dc:source><dcterms:license xsi:type="dcterms:URI">https://creativecommons.org/publicdomain/zero/1.0/</dcterms:license><dc:rights>“Pixel Art” (https://www.figma.com/community/file/1198754108850888330) by “DiceBear”, licensed under “CC0 1.0” (https://creativecommons.org/publicdomain/zero/1.0/)</dc:rights></rdf:Description></rdf:RDF></metadata><defs><g id="clothes-variant17-e8dfd3cd"><path d="M2 1h2v1h1v1h2V2h1V1h2v1h1v2H1V2h1z" fill="#428bca"/></g><g id="eyes-variant02-e8dfd3cd"><path fill-rule="evenodd" clip-rule="evenodd" d="M7 0H6v2h2V1H7zM2 0H1v2h2V1H2z" fill="white"/><path fill-rule="evenodd" clip-rule="evenodd" d="M6 0v1h1v1H5V0zM1 0v1h1v1H0V0z" fill="#76778b"/><path fill-rule="evenodd" clip-rule="evenodd" d="M6 0v1H5V0zm1 1v1H6V1zM1 0v1H0V0zm1 1v1H1V1z" fill="white" fill-opacity=".5"/></g><g id="mouth-happy05-e8dfd3cd"><path d="M1 0v2h2V1H2V0z" fill="#de0f0d"/><path d="M3 2V1H2V0H1v1h1v1z" fill="white" fill-opacity=".2"/></g><g id="hair-short06-e8dfd3cd"><path transform="matrix(-1 0 0 1 4 2)" fill="#91cb15" d="M0 0h1v3H0z"/><path transform="matrix(-1 0 0 1 13 2)" fill="#91cb15" d="M0 0h1v3H0z"/><path transform="matrix(-1 0 0 1 12 1)" fill="#91cb15" d="M0 0h9v2H0z"/><path transform="matrix(-1 0 0 1 4 2)" fill="#91cb15" d="M0 0h2v2H0z"/><path transform="matrix(-1 0 0 1 14 2)" fill="#91cb15" d="M0 0h2v2H0z"/></g><clipPath id="clip-e8dfd3cd"><rect width="16" height="16" rx="0" ry="0"/></clipPath></defs><g clip-path="url(#clip-e8dfd3cd)"><path d="M4 2h8v1h1v3h1v2h-1v3h-1v1H9v1h4v1h1v2H2v-2h1v-1h4v-1H4v-1H3V8H2V6h1V3h1z" fill="#8d5524"/><path d="M4 2h8v1h1v3h1v2h-1v3h-1v1H4v-1H3V8H2V6h1V3h1z" fill="white" fill-opacity=".1"/><use transform="translate(2 12)" href="#clothes-variant17-e8dfd3cd"/><use transform="translate(4 5)" href="#eyes-variant02-e8dfd3cd"/><use transform="translate(6 9)" href="#mouth-happy05-e8dfd3cd"/><use href="#hair-short06-e8dfd3cd"/></g></svg>