<svg xmlns="http://www.w3.org/2000/svg" viewBox="0 0 180 180" fill="none" shape-rendering="auto" aria-hidden="true" width="128" height="128"><!-- Generated by DiceBear (https://www.dicebear.com) --><metadata xmlns:rdf="http://www.w3.org/1999/02/22-rdf-syntax-ns#" xmlns:xsi="http://www.w3.org/2001/XMLSchema-instance" xmlns:dc="http://purl.org/dc/elements/1.1/" xmlns:dcterms="http://purl.org/dc/terms/"><rdf:RDF><rdf:Description><dc:title>Bottts</dc:title><dc:creator>Pablo Stanley</dc:creator><dc:source xsi:type="dcterms:URI">https://bottts.com/</dc:source><dcterms:license xsi:type="dcterms:URI">https://bottts.com/</dcterms:license><dc:rights>Remix of “Bottts” (https://bottts.com/) by “Pablo Stanley”, licensed under “Free for personal and commercial use” (https://bottts.com/)</dc:rights></rdf:Description></rdf:RDF></metadata><defs><g id="sides-antenna01-84ec7a7c"><mask id="sidesAntenna01-a" style="mask-type:luminance"><rect y="31" width="36" height="14" rx="4" fill="white"/><rect x="12" y="14" width="36" height="48" rx="4" fill="white"/><rect x="120" y="28" width="36" height="24" rx="4" fill="white"/><path fill="white" d="M5 11h2v20H5z"/></mask><g mask="url(#sidesAntenna01-a)"><path d="M-6 0h180v76H-6z" fill="#de6811"/><path fill="white" fill-opacity=".3" d="M-6 0h180v76H-6z"/><path fill="black" fill-opacity=".1" d="M-6 38h180v38H-6z"/></g><path fill="white" fill-opacity=".4" d="M5 11h2v20H5z"/><circle cx="6" cy="8" r="4" fill="#FFEA8F"/><circle cx="7" cy="7" r="2" fill="white"/></g><g id="top-antennaCrooked-84ec7a7c"><mask id="topAntennaCrooked-a" style="mask-type:luminance"><path d="M47.54 34.98 43 45.59h-3.74l4.92-10.43-6.05-10.43 3.22-11.84 2.9.8-2.9 10.6z" fill="white"/><path fill="white" d="M30 39.59h24v13H30z"/></mask><g mask="url(#topAntennaCrooked-a)"><path d="M-8 .6H92v52H-8z" fill="#de6811"/><path d="M-8 6.6H92v52H-8z" fill="white" fill-opacity=".3"/><path fill="white" fill-opacity=".2" d="M30 39.59h24v13H30z"/></g><circle cx="42" cy="8.59" r="8" fill="#FFE65C"/><circle cx="45" cy="5.59" r="3" fill="white"/></g><g id="head-square04-84ec7a7c"><mask id="headSquare04-a" style="mask-type:luminance"><path fill-rule="evenodd" clip-rule="evenodd" d="M0 102V68.85a40 40 0 0 1 2.28-13.31L19.76 12A18 18 0 0 1 36.74 0h56.52a18 18 0 0 1 16.98 12l17.48 43.54a40 40 0 0 1 2.28 13.3V102a18 18 0 0 1-18 18H18a18 18 0 0 1-18-18" fill="white"/></mask><g mask="url(#headSquare04-a)"><path d="M-2-2h134v124H-2z" fill="#de6811"/></g></g><g id="mouth-smile01-84ec7a7c"><path d="M23.05 4.44a2 2 0 1 1 3.9-.88C27.72 6.96 30.4 9 34 9s6.28-2.04 7.05-5.44a2 2 0 1 1 3.9.88C43.75 9.7 39.43 13 34 13s-9.76-3.3-10.95-8.56" fill="black" fill-opacity=".6"/></g><g id="eyes-shade01-84ec7a7c"><path d="M96 2H8c-4.5 0-8 3.5-8 8.03V28c0 4.5 3.5 8 8 8h13c8 0 11 8 18 8h27c7 0 9-8 17-8h13c4.5 0 8-3.5 8-8V10c0-4.5-3.5-8-8-8" fill="black" fill-opacity=".8"/><path d="M87 14H17c-3.5 0-5 3-5 5v2c0 2 1.5 5 5 5h12c6 0 11.62 8 17 8h14c5.38 0 9-8 15-8h12c3.5 0 5-3 5-5v-2c0-2-1.5-5-5-5" fill="#FF3D3D"/><path d="M31.4 40.78c-2.63-1.98-5.23-4.22-8.96-4.7L37.26 2h11zM15.48 36h-4L26.26 2h4z" fill="white" fill-opacity=".2"/></g><clipPath id="clip-84ec7a7c"><rect width="180" height="180" rx="0" ry="0"/></clipPath></defs><g clip-path="url(#clip-84ec7a7c)"><use transform="translate(6 66)" href="#sides-antenna01-84ec7a7c"/><use transform="translate(49 -.6)" href="#top-antennaCrooked-84ec7a7c"/><use transform="translate(25 44)" href="#head-square04-84ec7a7c"/><use transform="translate(56 128)" href="#mouth-smile01-84ec7a7c"/><use transform="translate(38 76)" href="#eyes-shade01-84ec7a7c"/></g></svg>